<svg xmlns="http://www.w3.org/2000/svg" width="200" height="200" viewBox="0 0 200 200">
  <defs>
    <linearGradient id="benchBg" x1="0%" y1="0%" x2="0%" y2="100%">
      <stop offset="0%" style="stop-color:#E8E4DB"/>
      <stop offset="100%" style="stop-color:#D4CFC4"/>
    </linearGradient>
  </defs>
  <rect width="200" height="200" fill="url(#benchBg)"/>
  <!-- Wall -->
  <rect x="0" y="0" width="200" height="80" fill="#8B4513"/>
  <!-- Tool rack -->
  <rect x="10" y="20" width="180" height="8" fill="#6B4423"/>
  <!-- Hanging tools -->
  <rect x="25" y="28" width="4" height="25" fill="#5C5446"/>
  <rect x="45" y="28" width="6" height="20" fill="#8B8579"/>
  <circle cx="65" cy="38" r="8" fill="#B8860B"/>
  <rect x="85" y="28" width="3" height="30" fill="#5C5446"/>
  <rect x="105" y="28" width="5" height="22" fill="#8B8579"/>
  <rect x="125" y="30" width="4" height="20" fill="#5C5446"/>
  <rect x="145" y="28" width="6" height="25" fill="#6B4423"/>
  <rect x="165" y="28" width="4" height="18" fill="#8B8579"/>
  <!-- Workbench top -->
  <rect x="0" y="80" width="200" height="15" fill="#8B4513"/>
  <rect x="0" y="95" width="200" height="5" fill="#6B4423"/>
  <!-- Bench legs/structure -->
  <rect x="10" y="100" width="180" height="80" fill="#5C5446"/>
  <rect x="15" y="105" width="170" height="70" fill="#6B4423"/>
  <!-- Drawers -->
  <rect x="20" y="110" width="50" height="25" fill="#8B4513" stroke="#5C5446" stroke-width="1"/>
  <circle cx="45" cy="122" r="3" fill="#B8860B"/>
  <rect x="75" y="110" width="50" height="25" fill="#8B4513" stroke="#5C5446" stroke-width="1"/>
  <circle cx="100" cy="122" r="3" fill="#B8860B"/>
  <rect x="130" y="110" width="50" height="25" fill="#8B4513" stroke="#5C5446" stroke-width="1"/>
  <circle cx="155" cy="122" r="3" fill="#B8860B"/>
  <!-- Book block in progress -->
  <rect x="30" y="70" width="40" height="12" fill="#FAF8F3"/>
  <rect x="30" y="70" width="40" height="2" fill="#8B8579"/>
  <!-- Sewing frame -->
  <rect x="100" y="55" width="60" height="5" fill="#6B4423"/>
  <rect x="105" y="40" width="5" height="20" fill="#6B4423"/>
  <rect x="150" y="40" width="5" height="20" fill="#6B4423"/>
  <line x1="108" y1="57" x2="152" y2="57" stroke="#B8860B" stroke-width="1"/>
  <line x1="108" y1="60" x2="152" y2="60" stroke="#B8860B" stroke-width="1"/>
  <!-- Finished book -->
  <rect x="170" y="68" width="20" height="14" fill="#7B4B94"/>
  <rect x="170" y="68" width="3" height="14" fill="#5C5446"/>
  <!-- Binder label -->
  <text x="100" y="192" text-anchor="middle" fill="#F5F1E8" font-family="Georgia, serif" font-size="9" font-style="italic">Bindery</text>
</svg>
