<svg xmlns="http://www.w3.org/2000/svg" width="200" height="200" viewBox="0 0 200 200">
  <defs>
    <linearGradient id="workshopBg" x1="0%" y1="0%" x2="0%" y2="100%">
      <stop offset="0%" style="stop-color:#D4CFC4"/>
      <stop offset="100%" style="stop-color:#B8A98D"/>
    </linearGradient>
  </defs>
  <rect width="200" height="200" fill="url(#workshopBg)"/>
  <!-- Brick wall -->
  <rect x="0" y="0" width="200" height="100" fill="#8B4513"/>
  <g fill="#6B4423" opacity="0.5">
    <rect x="5" y="5" width="35" height="15"/>
    <rect x="45" y="5" width="35" height="15"/>
    <rect x="85" y="5" width="35" height="15"/>
    <rect x="125" y="5" width="35" height="15"/>
    <rect x="165" y="5" width="30" height="15"/>
    <rect x="0" y="25" width="20" height="15"/>
    <rect x="25" y="25" width="35" height="15"/>
    <rect x="65" y="25" width="35" height="15"/>
    <rect x="105" y="25" width="35" height="15"/>
    <rect x="145" y="25" width="35" height="15"/>
  </g>
  <!-- Floor -->
  <rect x="0" y="100" width="200" height="100" fill="#5C5446"/>
  <!-- Leather hides hanging -->
  <path d="M20 30 Q30 60 25 95" fill="#8B4513" stroke="#6B4423" stroke-width="1"/>
  <path d="M50 25 Q55 55 48 90" fill="#6B4423" stroke="#5C5446" stroke-width="1"/>
  <path d="M80 28 Q88 58 82 93" fill="#A0522D" stroke="#8B4513" stroke-width="1"/>
  <!-- Hanging hooks -->
  <circle cx="22" cy="25" r="3" fill="#8B8579"/>
  <circle cx="52" cy="20" r="3" fill="#8B8579"/>
  <circle cx="82" cy="23" r="3" fill="#8B8579"/>
  <!-- Work table -->
  <rect x="100" y="120" width="90" height="60" fill="#6B4423"/>
  <rect x="95" y="115" width="100" height="8" fill="#8B4513"/>
  <!-- Leather piece on table -->
  <path d="M110 117 Q140 115 160 117 Q165 118 165 120 Q160 122 110 122 Z" fill="#A0522D"/>
  <!-- Cutting tools -->
  <rect x="170" y="118" width="4" height="20" fill="#5C5446"/>
  <polygon points="168,138 176,138 172,148" fill="#8B8579"/>
  <!-- Leather strips -->
  <rect x="15" y="140" width="50" height="5" fill="#8B4513"/>
  <rect x="15" y="148" width="45" height="5" fill="#6B4423"/>
  <rect x="15" y="156" width="48" height="5" fill="#A0522D"/>
  <!-- Window light -->
  <rect x="130" y="40" width="50" height="50" fill="#FAF8F3" opacity="0.3"/>
  <line x1="155" y1="40" x2="155" y2="90" stroke="#8B4513" stroke-width="2"/>
  <line x1="130" y1="65" x2="180" y2="65" stroke="#8B4513" stroke-width="2"/>
  <!-- Binder label -->
  <text x="100" y="192" text-anchor="middle" fill="#F5F1E8" font-family="Georgia, serif" font-size="9" font-style="italic">Bindery</text>
</svg>
