<svg xmlns="http://www.w3.org/2000/svg" width="200" height="200" viewBox="0 0 200 200">
  <defs>
    <linearGradient id="sceneBg" x1="0%" y1="0%" x2="0%" y2="100%">
      <stop offset="0%" style="stop-color:#D4CFC4"/>
      <stop offset="100%" style="stop-color:#B8A98D"/>
    </linearGradient>
  </defs>
  <rect width="200" height="200" fill="url(#sceneBg)"/>
  <!-- Arched window -->
  <path d="M130 10 Q160 10 160 50 L160 90 L100 90 L100 50 Q100 10 130 10" fill="#FAF8F3"/>
  <path d="M130 15 Q155 15 155 50 L155 85 L105 85 L105 50 Q105 15 130 15" fill="#E8E4DB"/>
  <line x1="130" y1="15" x2="130" y2="85" stroke="#8B4513" stroke-width="2"/>
  <line x1="105" y1="50" x2="155" y2="50" stroke="#8B4513" stroke-width="2"/>
  <!-- Wall shelves with books -->
  <rect x="5" y="30" width="80" height="8" fill="#6B4423"/>
  <rect x="5" y="70" width="80" height="8" fill="#6B4423"/>
  <!-- Books on shelves -->
  <rect x="10" y="15" width="8" height="15" fill="#7B4B94"/>
  <rect x="20" y="17" width="8" height="13" fill="#2C5F77"/>
  <rect x="30" y="14" width="8" height="16" fill="#B8860B"/>
  <rect x="40" y="16" width="8" height="14" fill="#8B4513"/>
  <rect x="50" y="15" width="8" height="15" fill="#5C5446"/>
  <rect x="60" y="18" width="8" height="12" fill="#7B4B94"/>
  <rect x="10" y="55" width="8" height="15" fill="#2C5F77"/>
  <rect x="20" y="57" width="8" height="13" fill="#8B4513"/>
  <rect x="30" y="54" width="8" height="16" fill="#7B4B94"/>
  <rect x="40" y="56" width="8" height="14" fill="#B8860B"/>
  <rect x="50" y="55" width="8" height="15" fill="#6B4423"/>
  <!-- Floor -->
  <rect x="0" y="130" width="200" height="70" fill="#5C5446"/>
  <!-- Worker silhouette at bench -->
  <ellipse cx="50" cy="100" rx="15" ry="18" fill="#2C2416"/>
  <path d="M30 130 Q30 110 50 105 Q70 110 70 130" fill="#2C2416"/>
  <!-- Work bench -->
  <rect x="15" y="115" width="70" height="20" fill="#8B4513"/>
  <rect x="15" y="135" width="70" height="45" fill="#6B4423"/>
  <!-- Book press on bench -->
  <rect x="25" y="105" width="20" height="12" fill="#5C5446"/>
  <rect x="23" y="103" width="24" height="4" fill="#8B8579"/>
  <!-- Hanging lamp -->
  <circle cx="130" cy="100" r="12" fill="#B8860B" opacity="0.8"/>
  <rect x="128" y="88" width="4" height="10" fill="#5C5446"/>
  <!-- Finished books stack -->
  <rect x="140" y="150" width="40" height="8" fill="#7B4B94"/>
  <rect x="142" y="142" width="36" height="8" fill="#2C5F77"/>
  <rect x="144" y="134" width="32" height="8" fill="#8B4513"/>
  <!-- Leather roll -->
  <ellipse cx="170" cy="175" rx="15" ry="8" fill="#8B4513"/>
  <ellipse cx="170" cy="175" rx="10" ry="5" fill="#6B4423"/>
  <!-- Gas lamp glow effect -->
  <circle cx="130" cy="100" r="25" fill="#B8860B" opacity="0.1"/>
  <!-- Binder label -->
  <text x="100" y="192" text-anchor="middle" fill="#F5F1E8" font-family="Georgia, serif" font-size="9" font-style="italic">Bindery</text>
</svg>
