<svg xmlns="http://www.w3.org/2000/svg" width="200" height="200" viewBox="0 0 200 200">
  <defs>
    <linearGradient id="officeBg" x1="0%" y1="0%" x2="0%" y2="100%">
      <stop offset="0%" style="stop-color:#F5F1E8"/>
      <stop offset="100%" style="stop-color:#E8E4DB"/>
    </linearGradient>
  </defs>
  <rect width="200" height="200" fill="url(#officeBg)"/>
  <!-- Wall panels -->
  <rect x="0" y="0" width="200" height="120" fill="#8B4513"/>
  <line x1="50" y1="0" x2="50" y2="120" stroke="#6B4423" stroke-width="2"/>
  <line x1="100" y1="0" x2="100" y2="120" stroke="#6B4423" stroke-width="2"/>
  <line x1="150" y1="0" x2="150" y2="120" stroke="#6B4423" stroke-width="2"/>
  <!-- Chair rail -->
  <rect x="0" y="115" width="200" height="5" fill="#6B4423"/>
  <!-- Floor -->
  <rect x="0" y="120" width="200" height="80" fill="#5C5446"/>
  <!-- Bookcase -->
  <rect x="10" y="20" width="60" height="95" fill="#2C2416"/>
  <rect x="15" y="25" width="50" height="20" fill="#6B4423"/>
  <rect x="15" y="50" width="50" height="20" fill="#6B4423"/>
  <rect x="15" y="75" width="50" height="20" fill="#6B4423"/>
  <!-- Books on shelves -->
  <rect x="18" y="28" width="6" height="15" fill="#7B4B94"/>
  <rect x="26" y="30" width="6" height="13" fill="#2C5F77"/>
  <rect x="34" y="27" width="6" height="16" fill="#B8860B"/>
  <rect x="42" y="29" width="6" height="14" fill="#8B4513"/>
  <rect x="50" y="28" width="6" height="15" fill="#5C5446"/>
  <rect x="18" y="53" width="6" height="15" fill="#2C5F77"/>
  <rect x="26" y="55" width="6" height="13" fill="#7B4B94"/>
  <rect x="34" y="52" width="6" height="16" fill="#5C5446"/>
  <rect x="42" y="54" width="6" height="14" fill="#B8860B"/>
  <rect x="50" y="53" width="6" height="15" fill="#8B4513"/>
  <!-- Desk -->
  <rect x="90" y="130" width="100" height="50" fill="#6B4423"/>
  <rect x="95" y="125" width="90" height="8" fill="#8B4513"/>
  <!-- Papers on desk -->
  <rect x="100" y="127" width="20" height="4" fill="#FAF8F3"/>
  <rect x="130" y="127" width="15" height="4" fill="#FAF8F3"/>
  <!-- Inkwell -->
  <circle cx="160" cy="128" r="5" fill="#2C2416"/>
  <!-- Quill -->
  <line x1="162" y1="123" x2="175" y2="110" stroke="#B8860B" stroke-width="2"/>
  <!-- Chair -->
  <rect x="120" y="145" width="30" height="35" fill="#2C2416"/>
  <rect x="125" y="140" width="20" height="8" fill="#7B4B94"/>
  <!-- Gas lamp -->
  <circle cx="150" cy="15" r="10" fill="#B8860B"/>
  <rect x="148" y="25" width="4" height="15" fill="#5C5446"/>
  <!-- Publisher label -->
  <text x="100" y="192" text-anchor="middle" fill="#F5F1E8" font-family="Georgia, serif" font-size="9" font-style="italic">Publisher</text>
</svg>
