<svg xmlns="http://www.w3.org/2000/svg" width="200" height="200" viewBox="0 0 200 200">
  <defs>
    <linearGradient id="logoBg" x1="0%" y1="0%" x2="0%" y2="100%">
      <stop offset="0%" style="stop-color:#2C2416"/>
      <stop offset="100%" style="stop-color:#1a1610"/>
    </linearGradient>
  </defs>
  <rect width="200" height="200" fill="url(#logoBg)"/>
  <!-- Ornate border -->
  <rect x="15" y="15" width="170" height="170" fill="none" stroke="#B8860B" stroke-width="3"/>
  <rect x="20" y="20" width="160" height="160" fill="none" stroke="#6B4423" stroke-width="1"/>
  <!-- Corner flourishes -->
  <path d="M25 25 L45 25 Q35 35 25 45" fill="none" stroke="#B8860B" stroke-width="2"/>
  <path d="M175 25 L155 25 Q165 35 175 45" fill="none" stroke="#B8860B" stroke-width="2"/>
  <path d="M25 175 L45 175 Q35 165 25 155" fill="none" stroke="#B8860B" stroke-width="2"/>
  <path d="M175 175 L155 175 Q165 165 175 155" fill="none" stroke="#B8860B" stroke-width="2"/>
  <!-- Open book icon -->
  <path d="M60 90 Q100 80 100 90 Q100 140 100 140 Q80 130 60 140 Z" fill="#8B4513"/>
  <path d="M140 90 Q100 80 100 90 Q100 140 100 140 Q120 130 140 140 Z" fill="#6B4423"/>
  <!-- Book spine -->
  <line x1="100" y1="88" x2="100" y2="142" stroke="#B8860B" stroke-width="2"/>
  <!-- Text lines on pages -->
  <line x1="70" y1="100" x2="95" y2="98" stroke="#D4CFC4" stroke-width="1"/>
  <line x1="72" y1="108" x2="94" y2="106" stroke="#D4CFC4" stroke-width="1"/>
  <line x1="74" y1="116" x2="93" y2="114" stroke="#D4CFC4" stroke-width="1"/>
  <line x1="105" y1="98" x2="130" y2="100" stroke="#D4CFC4" stroke-width="1"/>
  <line x1="106" y1="106" x2="128" y2="108" stroke="#D4CFC4" stroke-width="1"/>
  <line x1="107" y1="114" x2="126" y2="116" stroke="#D4CFC4" stroke-width="1"/>
  <!-- Quill crossing book -->
  <path d="M55 60 Q80 75 95 85" fill="none" stroke="#B8860B" stroke-width="3"/>
  <path d="M55 60 L45 50" fill="none" stroke="#F5F1E8" stroke-width="2"/>
  <!-- Publisher text -->
  <text x="100" y="165" text-anchor="middle" fill="#B8860B" font-family="Georgia, serif" font-size="14" font-weight="bold" letter-spacing="3">PUBLISHER</text>
  <!-- Est. date -->
  <text x="100" y="55" text-anchor="middle" fill="#8B8579" font-family="Georgia, serif" font-size="10" font-style="italic">Est. MDCCC</text>
</svg>
